<mxfile host="app.diagrams.net" modified="2023-05-31T13:05:33.515Z" agent="Mozilla/5.0 (Windows NT 10.0; Win64; x64) AppleWebKit/537.36 (KHTML, like Gecko) Chrome/113.0.0.0 Safari/537.36" etag="TQENM-QtKWvq1cdkBlg9" version="21.3.6" type="github">
  <diagram name="Page-1" id="p-Idm_zQID8yh4d82tUK">
    <mxGraphModel dx="1034" dy="462" grid="1" gridSize="10" guides="1" tooltips="1" connect="1" arrows="1" fold="1" page="1" pageScale="1" pageWidth="827" pageHeight="1169" math="0" shadow="0">
      <root>
        <mxCell id="0" />
        <mxCell id="1" parent="0" />
        <mxCell id="8hNLOZBuiXBLRBhqS7z1-1" value="管理员登录" style="rounded=0;whiteSpace=wrap;html=1;" vertex="1" parent="1">
          <mxGeometry x="310" width="100" height="40" as="geometry" />
        </mxCell>
        <mxCell id="8hNLOZBuiXBLRBhqS7z1-2" value="" style="endArrow=classic;html=1;rounded=0;exitX=0.5;exitY=1;exitDx=0;exitDy=0;" edge="1" parent="1" source="8hNLOZBuiXBLRBhqS7z1-1" target="8hNLOZBuiXBLRBhqS7z1-3">
          <mxGeometry width="50" height="50" relative="1" as="geometry">
            <mxPoint x="390" y="270" as="sourcePoint" />
            <mxPoint x="360" y="80" as="targetPoint" />
          </mxGeometry>
        </mxCell>
        <mxCell id="8hNLOZBuiXBLRBhqS7z1-3" value="用户名、密码、&lt;br&gt;验证码是否正确" style="rhombus;whiteSpace=wrap;html=1;" vertex="1" parent="1">
          <mxGeometry x="280" y="100" width="160" height="80" as="geometry" />
        </mxCell>
        <mxCell id="8hNLOZBuiXBLRBhqS7z1-4" value="" style="endArrow=classic;html=1;rounded=0;exitX=1;exitY=0.5;exitDx=0;exitDy=0;entryX=1;entryY=0.5;entryDx=0;entryDy=0;" edge="1" parent="1" source="8hNLOZBuiXBLRBhqS7z1-3" target="8hNLOZBuiXBLRBhqS7z1-1">
          <mxGeometry width="50" height="50" relative="1" as="geometry">
            <mxPoint x="390" y="270" as="sourcePoint" />
            <mxPoint x="500" y="-90" as="targetPoint" />
            <Array as="points">
              <mxPoint x="500" y="140" />
              <mxPoint x="500" y="20" />
            </Array>
          </mxGeometry>
        </mxCell>
        <mxCell id="8hNLOZBuiXBLRBhqS7z1-6" value="" style="endArrow=classic;html=1;rounded=0;exitX=0.5;exitY=1;exitDx=0;exitDy=0;" edge="1" parent="1">
          <mxGeometry width="50" height="50" relative="1" as="geometry">
            <mxPoint x="359.5" y="180" as="sourcePoint" />
            <mxPoint x="359.5" y="240" as="targetPoint" />
          </mxGeometry>
        </mxCell>
        <mxCell id="8hNLOZBuiXBLRBhqS7z1-7" value="管理员后台" style="rounded=0;whiteSpace=wrap;html=1;" vertex="1" parent="1">
          <mxGeometry x="310" y="240" width="100" height="40" as="geometry" />
        </mxCell>
        <mxCell id="8hNLOZBuiXBLRBhqS7z1-8" value="" style="endArrow=none;html=1;rounded=0;exitX=0.5;exitY=1;exitDx=0;exitDy=0;" edge="1" parent="1" source="8hNLOZBuiXBLRBhqS7z1-7">
          <mxGeometry width="50" height="50" relative="1" as="geometry">
            <mxPoint x="390" y="270" as="sourcePoint" />
            <mxPoint x="360" y="310" as="targetPoint" />
          </mxGeometry>
        </mxCell>
        <mxCell id="8hNLOZBuiXBLRBhqS7z1-10" value="" style="endArrow=none;html=1;rounded=0;" edge="1" parent="1">
          <mxGeometry width="50" height="50" relative="1" as="geometry">
            <mxPoint x="90" y="310" as="sourcePoint" />
            <mxPoint x="630" y="310" as="targetPoint" />
          </mxGeometry>
        </mxCell>
        <mxCell id="8hNLOZBuiXBLRBhqS7z1-12" value="" style="endArrow=classic;html=1;rounded=0;" edge="1" parent="1">
          <mxGeometry width="50" height="50" relative="1" as="geometry">
            <mxPoint x="89.5" y="310" as="sourcePoint" />
            <mxPoint x="89.5" y="340" as="targetPoint" />
          </mxGeometry>
        </mxCell>
        <mxCell id="8hNLOZBuiXBLRBhqS7z1-13" value="" style="endArrow=classic;html=1;rounded=0;" edge="1" parent="1">
          <mxGeometry width="50" height="50" relative="1" as="geometry">
            <mxPoint x="179.5" y="310" as="sourcePoint" />
            <mxPoint x="179.5" y="340" as="targetPoint" />
          </mxGeometry>
        </mxCell>
        <mxCell id="8hNLOZBuiXBLRBhqS7z1-14" value="" style="endArrow=classic;html=1;rounded=0;" edge="1" parent="1">
          <mxGeometry width="50" height="50" relative="1" as="geometry">
            <mxPoint x="270" y="310" as="sourcePoint" />
            <mxPoint x="270" y="340" as="targetPoint" />
          </mxGeometry>
        </mxCell>
        <mxCell id="8hNLOZBuiXBLRBhqS7z1-15" value="" style="endArrow=classic;html=1;rounded=0;" edge="1" parent="1">
          <mxGeometry width="50" height="50" relative="1" as="geometry">
            <mxPoint x="360" y="310" as="sourcePoint" />
            <mxPoint x="360" y="340" as="targetPoint" />
          </mxGeometry>
        </mxCell>
        <mxCell id="8hNLOZBuiXBLRBhqS7z1-16" value="" style="endArrow=classic;html=1;rounded=0;" edge="1" parent="1">
          <mxGeometry width="50" height="50" relative="1" as="geometry">
            <mxPoint x="629.5" y="310" as="sourcePoint" />
            <mxPoint x="629.5" y="340" as="targetPoint" />
          </mxGeometry>
        </mxCell>
        <mxCell id="8hNLOZBuiXBLRBhqS7z1-17" value="" style="endArrow=classic;html=1;rounded=0;" edge="1" parent="1">
          <mxGeometry width="50" height="50" relative="1" as="geometry">
            <mxPoint x="539.5" y="310" as="sourcePoint" />
            <mxPoint x="539.5" y="340" as="targetPoint" />
          </mxGeometry>
        </mxCell>
        <mxCell id="8hNLOZBuiXBLRBhqS7z1-18" value="" style="endArrow=classic;html=1;rounded=0;" edge="1" parent="1">
          <mxGeometry width="50" height="50" relative="1" as="geometry">
            <mxPoint x="449.5" y="310" as="sourcePoint" />
            <mxPoint x="449.5" y="340" as="targetPoint" />
          </mxGeometry>
        </mxCell>
        <mxCell id="8hNLOZBuiXBLRBhqS7z1-19" value="停车场管理" style="rounded=0;whiteSpace=wrap;html=1;" vertex="1" parent="1">
          <mxGeometry x="50" y="340" width="80" height="30" as="geometry" />
        </mxCell>
        <mxCell id="8hNLOZBuiXBLRBhqS7z1-20" value="车牌识别" style="rounded=0;whiteSpace=wrap;html=1;" vertex="1" parent="1">
          <mxGeometry x="140" y="340" width="80" height="30" as="geometry" />
        </mxCell>
        <mxCell id="8hNLOZBuiXBLRBhqS7z1-21" value="车辆管理" style="rounded=0;whiteSpace=wrap;html=1;" vertex="1" parent="1">
          <mxGeometry x="230" y="340" width="80" height="30" as="geometry" />
        </mxCell>
        <mxCell id="8hNLOZBuiXBLRBhqS7z1-22" value="停车记录" style="rounded=0;whiteSpace=wrap;html=1;" vertex="1" parent="1">
          <mxGeometry x="320" y="340" width="80" height="30" as="geometry" />
        </mxCell>
        <mxCell id="8hNLOZBuiXBLRBhqS7z1-24" value="系统监控" style="rounded=0;whiteSpace=wrap;html=1;" vertex="1" parent="1">
          <mxGeometry x="590" y="340" width="80" height="30" as="geometry" />
        </mxCell>
        <mxCell id="8hNLOZBuiXBLRBhqS7z1-25" value="账户管理" style="rounded=0;whiteSpace=wrap;html=1;" vertex="1" parent="1">
          <mxGeometry x="500" y="340" width="80" height="30" as="geometry" />
        </mxCell>
        <mxCell id="8hNLOZBuiXBLRBhqS7z1-26" value="系统管理" style="rounded=0;whiteSpace=wrap;html=1;" vertex="1" parent="1">
          <mxGeometry x="410" y="340" width="80" height="30" as="geometry" />
        </mxCell>
        <mxCell id="8hNLOZBuiXBLRBhqS7z1-30" value="" style="endArrow=none;html=1;rounded=0;" edge="1" parent="1">
          <mxGeometry width="50" height="50" relative="1" as="geometry">
            <mxPoint x="90" y="400" as="sourcePoint" />
            <mxPoint x="630" y="400" as="targetPoint" />
          </mxGeometry>
        </mxCell>
        <mxCell id="8hNLOZBuiXBLRBhqS7z1-32" value="" style="endArrow=none;html=1;rounded=0;exitX=0.5;exitY=1;exitDx=0;exitDy=0;" edge="1" parent="1" source="8hNLOZBuiXBLRBhqS7z1-19">
          <mxGeometry width="50" height="50" relative="1" as="geometry">
            <mxPoint x="390" y="370" as="sourcePoint" />
            <mxPoint x="90" y="400" as="targetPoint" />
          </mxGeometry>
        </mxCell>
        <mxCell id="8hNLOZBuiXBLRBhqS7z1-33" value="" style="endArrow=none;html=1;rounded=0;exitX=0.5;exitY=1;exitDx=0;exitDy=0;" edge="1" parent="1">
          <mxGeometry width="50" height="50" relative="1" as="geometry">
            <mxPoint x="179.5" y="370" as="sourcePoint" />
            <mxPoint x="179.5" y="400" as="targetPoint" />
          </mxGeometry>
        </mxCell>
        <mxCell id="8hNLOZBuiXBLRBhqS7z1-34" value="" style="endArrow=none;html=1;rounded=0;exitX=0.5;exitY=1;exitDx=0;exitDy=0;" edge="1" parent="1">
          <mxGeometry width="50" height="50" relative="1" as="geometry">
            <mxPoint x="269.5" y="370" as="sourcePoint" />
            <mxPoint x="269.5" y="400" as="targetPoint" />
          </mxGeometry>
        </mxCell>
        <mxCell id="8hNLOZBuiXBLRBhqS7z1-35" value="" style="endArrow=none;html=1;rounded=0;exitX=0.5;exitY=1;exitDx=0;exitDy=0;" edge="1" parent="1">
          <mxGeometry width="50" height="50" relative="1" as="geometry">
            <mxPoint x="359.5" y="370" as="sourcePoint" />
            <mxPoint x="360" y="400" as="targetPoint" />
          </mxGeometry>
        </mxCell>
        <mxCell id="8hNLOZBuiXBLRBhqS7z1-36" value="" style="endArrow=none;html=1;rounded=0;exitX=0.5;exitY=1;exitDx=0;exitDy=0;" edge="1" parent="1">
          <mxGeometry width="50" height="50" relative="1" as="geometry">
            <mxPoint x="449.5" y="370" as="sourcePoint" />
            <mxPoint x="449.5" y="400" as="targetPoint" />
          </mxGeometry>
        </mxCell>
        <mxCell id="8hNLOZBuiXBLRBhqS7z1-37" value="" style="endArrow=none;html=1;rounded=0;exitX=0.5;exitY=1;exitDx=0;exitDy=0;" edge="1" parent="1">
          <mxGeometry width="50" height="50" relative="1" as="geometry">
            <mxPoint x="539.5" y="370" as="sourcePoint" />
            <mxPoint x="539.5" y="400" as="targetPoint" />
          </mxGeometry>
        </mxCell>
        <mxCell id="8hNLOZBuiXBLRBhqS7z1-38" value="" style="endArrow=none;html=1;rounded=0;exitX=0.5;exitY=1;exitDx=0;exitDy=0;" edge="1" parent="1">
          <mxGeometry width="50" height="50" relative="1" as="geometry">
            <mxPoint x="629.5" y="370" as="sourcePoint" />
            <mxPoint x="629.5" y="400" as="targetPoint" />
          </mxGeometry>
        </mxCell>
        <mxCell id="8hNLOZBuiXBLRBhqS7z1-39" value="" style="endArrow=classic;html=1;rounded=0;" edge="1" parent="1" target="8hNLOZBuiXBLRBhqS7z1-40">
          <mxGeometry width="50" height="50" relative="1" as="geometry">
            <mxPoint x="360" y="400" as="sourcePoint" />
            <mxPoint x="360" y="440" as="targetPoint" />
          </mxGeometry>
        </mxCell>
        <mxCell id="8hNLOZBuiXBLRBhqS7z1-40" value="退出后台" style="rounded=1;whiteSpace=wrap;html=1;" vertex="1" parent="1">
          <mxGeometry x="300" y="450" width="120" height="50" as="geometry" />
        </mxCell>
      </root>
    </mxGraphModel>
  </diagram>
</mxfile>
